<?xml version='1.0' encoding='UTF-8' standalone='no'?>
<!-- Created with Fritzing (http://www.fritzing.org/) -->
<svg xmlns="http://www.w3.org/2000/svg" width="4in" x="0in" version="1.2" y="0in"  height="2.111in" viewBox="0 0 288 151.992" baseProfile="tiny" xmlns:svg="http://www.w3.org/2000/svg">
 <g partID="309260">
  <g  id="board">
   <path fill="none"  stroke="black" fill-opacity="0.5" id="boardoutline" stroke-width="0.5" d="M280.63,33.9902L280.63,5.6457L274.961,0L0,0l0,151.645l282.047,0l0,-6.31567l5.67,-7.13662L287.717,41.0998L280.63,33.9902z"/>
   <g  id="hole_11_"/>
   <g  id="hole_10_"/>
   <g  id="hole_9_"/>
   <g  id="hole_8_"/>
   <g  id="hole_7_"/>
   <g  id="hole_6_"/>
   <g  id="ICSP1_1_"/>
   <g  id="ICSP2_1_"/>
   <g  id="Header_13_"/>
   <g  id="Header_12_"/>
   <g  id="Header_11_"/>
   <g  id="Header_10_"/>
   <g  id="Header_9_"/>
   <g  id="Header_8_"/>
   <g  id="Header_7_"/>
   <g  id="usbconnector_1_"/>
  </g>
 </g>
 <g partID="108221">
  <g transform="translate(45.2296,64.7664)">
   <g transform="matrix(0,1,-1,0,0,0)">
    <g  id="copper1">
     <rect width="3.96" x="0.72" y="1.116" fill="none"  height="3.96" stroke="black" stroke-width="1.44"/>
     <circle fill="none" cx="2.7"  cy="3.096" stroke="black" r="1.98" id="connector0pin" stroke-width="1.44"/>
     <circle fill="none" cx="31.5"  cy="3.096" stroke="black" r="1.98" id="connector1pin" stroke-width="1.44"/>
    </g>
   </g>
  </g>
 </g>
 <g partID="107311">
  <g transform="translate(148.546,114.32)">
   <g  id="copper1">
    <circle fill="none" cx="8.7876"  cy="10.6336" stroke="black" id="connector1pad" r="1.7008" stroke-width="1.13384"/>
    <rect width="3.4016" x="7.0868" y="8.9328" fill="none"  height="3.4016" stroke="black" stroke-width="1.13384"/>
    <circle fill="none" cx="8.7876"  cy="3.5464" stroke="black" id="connector0pad" r="1.7008" stroke-width="1.13384"/>
   </g>
  </g>
 </g>
 <g partID="107231">
  <g transform="translate(252.521,92.6128)">
   <g transform="matrix(-1,0,0,-1,0,0)">
    <g  id="copper1">
     <circle fill="none" cx="8.7876"  cy="10.6336" stroke="black" id="connector1pad" r="1.7008" stroke-width="1.13384"/>
     <rect width="3.4016" x="7.0868" y="8.9328" fill="none"  height="3.4016" stroke="black" stroke-width="1.13384"/>
     <circle fill="none" cx="8.7876"  cy="3.5464" stroke="black" id="connector0pad" r="1.7008" stroke-width="1.13384"/>
    </g>
   </g>
  </g>
 </g>
 <g partID="107221">
  <g transform="translate(206.146,78.32)">
   <g  id="copper1">
    <circle fill="none" cx="8.7876"  cy="10.6336" stroke="black" id="connector1pad" r="1.7008" stroke-width="1.13384"/>
    <rect width="3.4016" x="7.0868" y="8.9328" fill="none"  height="3.4016" stroke="black" stroke-width="1.13384"/>
    <circle fill="none" cx="8.7876"  cy="3.5464" stroke="black" id="connector0pad" r="1.7008" stroke-width="1.13384"/>
   </g>
  </g>
 </g>
 <g partID="107341">
  <g transform="translate(137.322,128.613)">
   <g transform="matrix(-1,0,0,-1,0,0)">
    <g  id="copper1">
     <circle fill="none" cx="8.7876"  cy="10.6336" stroke="black" id="connector1pad" r="1.7008" stroke-width="1.13384"/>
     <rect width="3.4016" x="7.0868" y="8.9328" fill="none"  height="3.4016" stroke="black" stroke-width="1.13384"/>
     <circle fill="none" cx="8.7876"  cy="3.5464" stroke="black" id="connector0pad" r="1.7008" stroke-width="1.13384"/>
    </g>
   </g>
  </g>
 </g>
 <g partID="107321">
  <g transform="translate(194.921,128.613)">
   <g transform="matrix(-1,0,0,-1,0,0)">
    <g  id="copper1">
     <circle fill="none" cx="8.7876"  cy="10.6336" stroke="black" id="connector1pad" r="1.7008" stroke-width="1.13384"/>
     <rect width="3.4016" x="7.0868" y="8.9328" fill="none"  height="3.4016" stroke="black" stroke-width="1.13384"/>
     <circle fill="none" cx="8.7876"  cy="3.5464" stroke="black" id="connector0pad" r="1.7008" stroke-width="1.13384"/>
    </g>
   </g>
  </g>
 </g>
 <g partID="107351">
  <g transform="translate(252.521,128.613)">
   <g transform="matrix(-1,0,0,-1,0,0)">
    <g  id="copper1">
     <circle fill="none" cx="8.7876"  cy="10.6336" stroke="black" id="connector1pad" r="1.7008" stroke-width="1.13384"/>
     <rect width="3.4016" x="7.0868" y="8.9328" fill="none"  height="3.4016" stroke="black" stroke-width="1.13384"/>
     <circle fill="none" cx="8.7876"  cy="3.5464" stroke="black" id="connector0pad" r="1.7008" stroke-width="1.13384"/>
    </g>
   </g>
  </g>
 </g>
 <g partID="107331">
  <g transform="translate(206.146,114.32)">
   <g  id="copper1">
    <circle fill="none" cx="8.7876"  cy="10.6336" stroke="black" id="connector1pad" r="1.7008" stroke-width="1.13384"/>
    <rect width="3.4016" x="7.0868" y="8.9328" fill="none"  height="3.4016" stroke="black" stroke-width="1.13384"/>
    <circle fill="none" cx="8.7876"  cy="3.5464" stroke="black" id="connector0pad" r="1.7008" stroke-width="1.13384"/>
   </g>
  </g>
 </g>
 <g partID="107211">
  <g transform="translate(148.546,78.32)">
   <g  id="copper1">
    <circle fill="none" cx="8.7876"  cy="10.6336" stroke="black" id="connector1pad" r="1.7008" stroke-width="1.13384"/>
    <rect width="3.4016" x="7.0868" y="8.9328" fill="none"  height="3.4016" stroke="black" stroke-width="1.13384"/>
    <circle fill="none" cx="8.7876"  cy="3.5464" stroke="black" id="connector0pad" r="1.7008" stroke-width="1.13384"/>
   </g>
  </g>
 </g>
 <g partID="107301">
  <g transform="translate(90.9464,114.32)">
   <g  id="copper1">
    <circle fill="none" cx="8.7876"  cy="10.6336" stroke="black" id="connector1pad" r="1.7008" stroke-width="1.13384"/>
    <rect width="3.4016" x="7.0868" y="8.9328" fill="none"  height="3.4016" stroke="black" stroke-width="1.13384"/>
    <circle fill="none" cx="8.7876"  cy="3.5464" stroke="black" id="connector0pad" r="1.7008" stroke-width="1.13384"/>
   </g>
  </g>
 </g>
 <g partID="107111">
  <g transform="translate(194.921,56.6128)">
   <g transform="matrix(-1,0,0,-1,0,0)">
    <g  id="copper1">
     <circle fill="none" cx="8.7876"  cy="10.6336" stroke="black" id="connector1pad" r="1.7008" stroke-width="1.13384"/>
     <rect width="3.4016" x="7.0868" y="8.9328" fill="none"  height="3.4016" stroke="black" stroke-width="1.13384"/>
     <circle fill="none" cx="8.7876"  cy="3.5464" stroke="black" id="connector0pad" r="1.7008" stroke-width="1.13384"/>
    </g>
   </g>
  </g>
 </g>
 <g partID="107101">
  <g transform="translate(148.546,42.32)">
   <g  id="copper1">
    <circle fill="none" cx="8.7876"  cy="10.6336" stroke="black" id="connector1pad" r="1.7008" stroke-width="1.13384"/>
    <rect width="3.4016" x="7.0868" y="8.9328" fill="none"  height="3.4016" stroke="black" stroke-width="1.13384"/>
    <circle fill="none" cx="8.7876"  cy="3.5464" stroke="black" id="connector0pad" r="1.7008" stroke-width="1.13384"/>
   </g>
  </g>
 </g>
 <g partID="106841">
  <g transform="translate(90.9464,42.32)">
   <g  id="copper1">
    <circle fill="none" cx="8.7876"  cy="10.6336" stroke="black" id="connector1pad" r="1.7008" stroke-width="1.13384"/>
    <rect width="3.4016" x="7.0868" y="8.9328" fill="none"  height="3.4016" stroke="black" stroke-width="1.13384"/>
    <circle fill="none" cx="8.7876"  cy="3.5464" stroke="black" id="connector0pad" r="1.7008" stroke-width="1.13384"/>
   </g>
  </g>
 </g>
 <g partID="107081">
  <g transform="translate(137.322,56.6128)">
   <g transform="matrix(-1,0,0,-1,0,0)">
    <g  id="copper1">
     <circle fill="none" cx="8.7876"  cy="10.6336" stroke="black" id="connector1pad" r="1.7008" stroke-width="1.13384"/>
     <rect width="3.4016" x="7.0868" y="8.9328" fill="none"  height="3.4016" stroke="black" stroke-width="1.13384"/>
     <circle fill="none" cx="8.7876"  cy="3.5464" stroke="black" id="connector0pad" r="1.7008" stroke-width="1.13384"/>
    </g>
   </g>
  </g>
 </g>
 <g partID="107201">
  <g transform="translate(90.9464,78.32)">
   <g  id="copper1">
    <circle fill="none" cx="8.7876"  cy="10.6336" stroke="black" id="connector1pad" r="1.7008" stroke-width="1.13384"/>
    <rect width="3.4016" x="7.0868" y="8.9328" fill="none"  height="3.4016" stroke="black" stroke-width="1.13384"/>
    <circle fill="none" cx="8.7876"  cy="3.5464" stroke="black" id="connector0pad" r="1.7008" stroke-width="1.13384"/>
   </g>
  </g>
 </g>
 <g partID="107191">
  <g transform="translate(194.921,92.6128)">
   <g transform="matrix(-1,0,0,-1,0,0)">
    <g  id="copper1">
     <circle fill="none" cx="8.7876"  cy="10.6336" stroke="black" id="connector1pad" r="1.7008" stroke-width="1.13384"/>
     <rect width="3.4016" x="7.0868" y="8.9328" fill="none"  height="3.4016" stroke="black" stroke-width="1.13384"/>
     <circle fill="none" cx="8.7876"  cy="3.5464" stroke="black" id="connector0pad" r="1.7008" stroke-width="1.13384"/>
    </g>
   </g>
  </g>
 </g>
 <g partID="107181">
  <g transform="translate(137.322,92.6128)">
   <g transform="matrix(-1,0,0,-1,0,0)">
    <g  id="copper1">
     <circle fill="none" cx="8.7876"  cy="10.6336" stroke="black" id="connector1pad" r="1.7008" stroke-width="1.13384"/>
     <rect width="3.4016" x="7.0868" y="8.9328" fill="none"  height="3.4016" stroke="black" stroke-width="1.13384"/>
     <circle fill="none" cx="8.7876"  cy="3.5464" stroke="black" id="connector0pad" r="1.7008" stroke-width="1.13384"/>
    </g>
   </g>
  </g>
 </g>
 <g partID="107151">
  <g transform="translate(252.521,56.6128)">
   <g transform="matrix(-1,0,0,-1,0,0)">
    <g  id="copper1">
     <circle fill="none" cx="8.7876"  cy="10.6336" stroke="black" id="connector1pad" r="1.7008" stroke-width="1.13384"/>
     <rect width="3.4016" x="7.0868" y="8.9328" fill="none"  height="3.4016" stroke="black" stroke-width="1.13384"/>
     <circle fill="none" cx="8.7876"  cy="3.5464" stroke="black" id="connector0pad" r="1.7008" stroke-width="1.13384"/>
    </g>
   </g>
  </g>
 </g>
 <g partID="107141">
  <g transform="translate(206.146,42.32)">
   <g  id="copper1">
    <circle fill="none" cx="8.7876"  cy="10.6336" stroke="black" id="connector1pad" r="1.7008" stroke-width="1.13384"/>
    <rect width="3.4016" x="7.0868" y="8.9328" fill="none"  height="3.4016" stroke="black" stroke-width="1.13384"/>
    <circle fill="none" cx="8.7876"  cy="3.5464" stroke="black" id="connector0pad" r="1.7008" stroke-width="1.13384"/>
   </g>
  </g>
 </g>
 <g partID="108161">
  <g transform="translate(38.0296,64.7664)">
   <g transform="matrix(0,1,-1,0,0,0)">
    <g  id="copper1">
     <rect width="3.96" x="0.72" y="1.116" fill="none"  height="3.96" stroke="black" stroke-width="1.44"/>
     <circle fill="none" cx="2.7"  cy="3.096" stroke="black" r="1.98" id="connector0pin" stroke-width="1.44"/>
     <circle fill="none" cx="31.5"  cy="3.096" stroke="black" r="1.98" id="connector1pin" stroke-width="1.44"/>
    </g>
   </g>
  </g>
 </g>
 <g partID="107561">
  <g transform="translate(30.8296,64.7664)">
   <g transform="matrix(0,1,-1,0,0,0)">
    <g  id="copper1">
     <rect width="3.96" x="0.72" y="1.116" fill="none"  height="3.96" stroke="black" stroke-width="1.44"/>
     <circle fill="none" cx="2.7"  cy="3.096" stroke="black" r="1.98" id="connector0pin" stroke-width="1.44"/>
     <circle fill="none" cx="31.5"  cy="3.096" stroke="black" r="1.98" id="connector1pin" stroke-width="1.44"/>
    </g>
   </g>
  </g>
 </g>
 <g partID="107581">
  <g transform="translate(23.6296,64.7664)">
   <g transform="matrix(0,1,-1,0,0,0)">
    <g  id="copper1">
     <rect width="3.96" x="0.72" y="1.116" fill="none"  height="3.96" stroke="black" stroke-width="1.44"/>
     <circle fill="none" cx="2.7"  cy="3.096" stroke="black" r="1.98" id="connector0pin" stroke-width="1.44"/>
     <circle fill="none" cx="31.5"  cy="3.096" stroke="black" r="1.98" id="connector1pin" stroke-width="1.44"/>
    </g>
   </g>
  </g>
 </g>
 <g partID="161021">
  <g transform="translate(16.4296,64.7664)">
   <g transform="matrix(0,1,-1,0,0,0)">
    <g  id="copper1">
     <rect width="3.96" x="0.72" y="1.116" fill="none"  height="3.96" stroke="black" stroke-width="1.44"/>
     <circle fill="none" cx="2.7"  cy="3.096" stroke="black" r="1.98" id="connector0pin" stroke-width="1.44"/>
     <circle fill="none" cx="31.5"  cy="3.096" stroke="black" r="1.98" id="connector1pin" stroke-width="1.44"/>
    </g>
   </g>
  </g>
 </g>
 <g partID="309301">
  <g transform="translate(63.1432,7.6496)">
   <g  id="copper1">
    <g  id="copper0">
     <circle fill="none" cx="2.484"  cy="2.484" stroke="black" id="connector0pin" r="1.98" stroke-width="1.44"/>
     <circle fill="none" cx="9.684"  cy="2.484" stroke="black" id="connector1pin" r="1.98" stroke-width="1.44"/>
     <circle fill="none" cx="16.884"  cy="2.484" stroke="black" id="connector2pin" r="1.98" stroke-width="1.44"/>
     <circle fill="none" cx="24.084"  cy="2.484" stroke="black" id="connector3pin" r="1.98" stroke-width="1.44"/>
     <circle fill="none" cx="31.284"  cy="2.484" stroke="black" id="connector4pin" r="1.98" stroke-width="1.44"/>
     <circle fill="none" cx="38.484"  cy="2.484" stroke="black" id="connector5pin" r="1.98" stroke-width="1.44"/>
     <circle fill="none" cx="45.684"  cy="2.484" stroke="black" id="connector6pin" r="1.98" stroke-width="1.44"/>
     <circle fill="none" cx="52.884"  cy="2.484" stroke="black" id="connector7pin" r="1.98" stroke-width="1.44"/>
     <circle fill="none" cx="65.124"  cy="2.484" stroke="black" id="connector8pin" r="1.98" stroke-width="1.44"/>
     <circle fill="none" cx="72.324"  cy="2.484" stroke="black" id="connector9pin" r="1.98" stroke-width="1.44"/>
     <circle fill="none" cx="79.524"  cy="2.484" stroke="black" id="connector10pin" r="1.98" stroke-width="1.44"/>
     <circle fill="none" cx="86.724"  cy="2.484" stroke="black" id="connector11pin" r="1.98" stroke-width="1.44"/>
     <circle fill="none" cx="93.924"  cy="2.484" stroke="black" id="connector12pin" r="1.98" stroke-width="1.44"/>
     <circle fill="none" cx="101.124"  cy="2.484" stroke="black" id="connector13pin" r="1.98" stroke-width="1.44"/>
     <circle fill="none" cx="108.324"  cy="2.484" stroke="black" id="connector14pin" r="1.98" stroke-width="1.44"/>
     <circle fill="none" cx="115.524"  cy="2.484" stroke="black" id="connector15pin" r="1.98" stroke-width="1.44"/>
     <circle fill="none" cx="29.124"  cy="139.284" stroke="black" id="connector16pin" r="1.98" stroke-width="1.44"/>
     <circle fill="none" cx="36.324"  cy="139.284" stroke="black" id="connector17pin" r="1.98" stroke-width="1.44"/>
     <circle fill="none" cx="43.524"  cy="139.284" stroke="black" id="connector18pin" r="1.98" stroke-width="1.44"/>
     <circle fill="none" cx="50.724"  cy="139.284" stroke="black" id="connector19pin" r="1.98" stroke-width="1.44"/>
     <circle fill="none" cx="57.924"  cy="139.284" stroke="black" id="connector20pin" r="1.98" stroke-width="1.44"/>
     <circle fill="none" cx="65.124"  cy="139.284" stroke="black" id="connector21pin" r="1.98" stroke-width="1.44"/>
     <circle fill="none" cx="79.524"  cy="139.284" stroke="black" id="connector22pin" r="1.98" stroke-width="1.44"/>
     <circle fill="none" cx="86.724"  cy="139.284" stroke="black" id="connector23pin" r="1.98" stroke-width="1.44"/>
     <circle fill="none" cx="93.924"  cy="139.284" stroke="black" id="connector24pin" r="1.98" stroke-width="1.44"/>
     <circle fill="none" cx="101.124"  cy="139.284" stroke="black" id="connector25pin" r="1.98" stroke-width="1.44"/>
     <circle fill="none" cx="108.324"  cy="139.284" stroke="black" id="connector26pin" r="1.98" stroke-width="1.44"/>
     <circle fill="none" cx="115.524"  cy="139.284" stroke="black" id="connector27pin" r="1.98" stroke-width="1.44"/>
     <circle fill="none" cx="129.924"  cy="2.484" stroke="black" id="connector28pin" r="1.98" stroke-width="1.44"/>
     <circle fill="none" cx="137.124"  cy="2.484" stroke="black" id="connector29pin" r="1.98" stroke-width="1.44"/>
     <circle fill="none" cx="144.324"  cy="2.484" stroke="black" id="connector30pin" r="1.98" stroke-width="1.44"/>
     <circle fill="none" cx="151.524"  cy="2.484" stroke="black" id="connector31pin" r="1.98" stroke-width="1.44"/>
     <circle fill="none" cx="158.724"  cy="2.484" stroke="black" id="connector32pin" r="1.98" stroke-width="1.44"/>
     <circle fill="none" cx="165.924"  cy="2.484" stroke="black" id="connector33pin" r="1.98" stroke-width="1.44"/>
     <circle fill="none" cx="173.124"  cy="2.484" stroke="black" id="connector34pin" r="1.98" stroke-width="1.44"/>
     <circle fill="none" cx="180.324"  cy="2.484" stroke="black" id="connector35pin" r="1.98" stroke-width="1.44"/>
     <circle fill="none" cx="122.724"  cy="139.284" stroke="black" id="connector70pin" r="1.98" stroke-width="1.44"/>
     <circle fill="none" cx="129.924"  cy="139.284" stroke="black" id="connector71pin" r="1.98" stroke-width="1.44"/>
     <circle fill="none" cx="144.324"  cy="139.284" stroke="black" id="connector72pin" r="1.98" stroke-width="1.44"/>
     <circle fill="none" cx="151.524"  cy="139.284" stroke="black" id="connector73pin" r="1.98" stroke-width="1.44"/>
     <circle fill="none" cx="158.724"  cy="139.284" stroke="black" id="connector74pin" r="1.98" stroke-width="1.44"/>
     <circle fill="none" cx="165.924"  cy="139.284" stroke="black" id="connector75pin" r="1.98" stroke-width="1.44"/>
     <circle fill="none" cx="173.124"  cy="139.284" stroke="black" id="connector76pin" r="1.98" stroke-width="1.44"/>
     <circle fill="none" cx="180.324"  cy="139.284" stroke="black" id="connector77pin" r="1.98" stroke-width="1.44"/>
     <circle fill="none" cx="187.524"  cy="139.284" stroke="black" id="connector78pin" r="1.98" stroke-width="1.44"/>
     <circle fill="none" cx="194.724"  cy="139.284" stroke="black" id="connector79pin" r="1.98" stroke-width="1.44"/>
     <circle fill="none" cx="201.924"  cy="2.484" stroke="black" id="connector80pin" r="1.98" stroke-width="1.44"/>
     <circle fill="none" cx="209.124"  cy="2.484" stroke="black" id="connector81pin" r="1.98" stroke-width="1.44"/>
     <circle fill="none" cx="201.924"  cy="9.684" stroke="black" id="connector36pin" r="1.98" stroke-width="1.44"/>
     <circle fill="none" cx="209.124"  cy="9.684" stroke="black" id="connector37pin" r="1.98" stroke-width="1.44"/>
     <circle fill="none" cx="201.924"  cy="16.884" stroke="black" id="connector38pin" r="1.98" stroke-width="1.44"/>
     <circle fill="none" cx="209.124"  cy="16.884" stroke="black" id="connector39pin" r="1.98" stroke-width="1.44"/>
     <circle fill="none" cx="201.924"  cy="24.084" stroke="black" id="connector40pin" r="1.98" stroke-width="1.44"/>
     <circle fill="none" cx="209.124"  cy="24.084" stroke="black" id="connector41pin" r="1.98" stroke-width="1.44"/>
     <circle fill="none" cx="201.924"  cy="31.284" stroke="black" id="connector42pin" r="1.98" stroke-width="1.44"/>
     <circle fill="none" cx="209.124"  cy="31.284" stroke="black" id="connector43pin" r="1.98" stroke-width="1.44"/>
     <circle fill="none" cx="201.924"  cy="38.484" stroke="black" id="connector44pin" r="1.98" stroke-width="1.44"/>
     <circle fill="none" cx="209.124"  cy="38.484" stroke="black" id="connector45pin" r="1.98" stroke-width="1.44"/>
     <circle fill="none" cx="201.924"  cy="45.684" stroke="black" id="connector46pin" r="1.98" stroke-width="1.44"/>
     <circle fill="none" cx="209.124"  cy="45.684" stroke="black" id="connector47pin" r="1.98" stroke-width="1.44"/>
     <circle fill="none" cx="201.924"  cy="52.884" stroke="black" id="connector48pin" r="1.98" stroke-width="1.44"/>
     <circle fill="none" cx="209.124"  cy="52.884" stroke="black" id="connector49pin" r="1.98" stroke-width="1.44"/>
     <circle fill="none" cx="201.924"  cy="60.084" stroke="black" id="connector50pin" r="1.98" stroke-width="1.44"/>
     <circle fill="none" cx="209.124"  cy="60.084" stroke="black" id="connector51pin" r="1.98" stroke-width="1.44"/>
     <circle fill="none" cx="201.924"  cy="67.284" stroke="black" id="connector52pin" r="1.98" stroke-width="1.44"/>
     <circle fill="none" cx="209.124"  cy="67.284" stroke="black" id="connector53pin" r="1.98" stroke-width="1.44"/>
     <circle fill="none" cx="201.924"  cy="74.484" stroke="black" id="connector54pin" r="1.98" stroke-width="1.44"/>
     <circle fill="none" cx="209.124"  cy="74.484" stroke="black" id="connector55pin" r="1.98" stroke-width="1.44"/>
     <circle fill="none" cx="201.924"  cy="81.684" stroke="black" id="connector56pin" r="1.98" stroke-width="1.44"/>
     <circle fill="none" cx="209.124"  cy="81.684" stroke="black" id="connector57pin" r="1.98" stroke-width="1.44"/>
     <circle fill="none" cx="201.924"  cy="88.884" stroke="black" id="connector58pin" r="1.98" stroke-width="1.44"/>
     <circle fill="none" cx="209.124"  cy="88.884" stroke="black" id="connector59pin" r="1.98" stroke-width="1.44"/>
     <circle fill="none" cx="201.924"  cy="96.084" stroke="black" id="connector60pin" r="1.98" stroke-width="1.44"/>
     <circle fill="none" cx="209.124"  cy="96.084" stroke="black" id="connector61pin" r="1.98" stroke-width="1.44"/>
     <circle fill="none" cx="201.924"  cy="103.284" stroke="black" id="connector62pin" r="1.98" stroke-width="1.44"/>
     <circle fill="none" cx="209.124"  cy="103.284" stroke="black" id="connector63pin" r="1.98" stroke-width="1.44"/>
     <circle fill="none" cx="201.924"  cy="110.484" stroke="black" id="connector64pin" r="1.98" stroke-width="1.44"/>
     <circle fill="none" cx="209.124"  cy="110.484" stroke="black" id="connector65pin" r="1.98" stroke-width="1.44"/>
     <circle fill="none" cx="201.924"  cy="117.684" stroke="black" id="connector66pin" r="1.98" stroke-width="1.44"/>
     <circle fill="none" cx="209.124"  cy="117.684" stroke="black" id="connector67pin" r="1.98" stroke-width="1.44"/>
     <circle fill="none" cx="201.924"  cy="124.884" stroke="black" id="connector68pin" r="1.98" stroke-width="1.44"/>
     <circle fill="none" cx="209.124"  cy="124.884" stroke="black" id="connector69pin" r="1.98" stroke-width="1.44"/>
    </g>
   </g>
  </g>
 </g>
 <g partID="309320">
  <line stroke="black" stroke-linecap="round" y1="132.266" x1="20.5336" y2="132.8" stroke-width="1.728" x2="85.3336"/>
 </g>
 <g partID="303680">
  <line stroke="black" stroke-linecap="round" y1="98.3264" x1="20.5336" y2="132.266" stroke-width="1.728" x2="20.5336"/>
 </g>
 <g partID="310230">
  <line stroke="black" stroke-linecap="round" y1="96.8" x1="85.3336" y2="96.8" stroke-width="1.728" x2="114.134"/>
 </g>
 <g partID="310200">
  <line stroke="black" stroke-linecap="round" y1="96.8" x1="114.134" y2="82.4" stroke-width="1.728" x2="114.134"/>
 </g>
 <g partID="305930">
  <line stroke="black" stroke-linecap="round" y1="132.8" x1="85.3336" y2="96.8002" stroke-width="1.728" x2="85.3336"/>
 </g>
 <g partID="308500">
  <line stroke="black" stroke-linecap="round" y1="82.4" x1="114.134" y2="81.938" stroke-width="1.728" x2="101.667"/>
 </g>
 <g partID="307090">
  <line stroke="black" stroke-linecap="round" y1="140" x1="142.934" y2="82.1336" stroke-width="1.728" x2="143.2"/>
 </g>
 <g partID="307060">
  <line stroke="black" stroke-linecap="round" y1="82.1336" x1="143.2" y2="81.9034" stroke-width="1.728" x2="155.4"/>
 </g>
 <g partID="309530">
  <line stroke="black" stroke-linecap="round" y1="139.2" x1="13.6003" y2="140" stroke-width="1.728" x2="142.934"/>
 </g>
 <g partID="304800">
  <line stroke="black" stroke-linecap="round" y1="103.733" x1="13.3336" y2="139.2" stroke-width="1.728" x2="13.6003"/>
 </g>
 <g partID="303500">
  <line stroke="black" stroke-linecap="round" y1="98.3264" x1="13.3336" y2="103.733" stroke-width="1.728" x2="13.3336"/>
 </g>
 <g partID="309580">
  <line stroke="black" stroke-linecap="round" y1="89.0664" x1="78.1336" y2="88.9637" stroke-width="1.728" x2="97.7997"/>
 </g>
 <g partID="305960">
  <line stroke="black" stroke-linecap="round" y1="125.334" x1="78.1336" y2="89.067" stroke-width="1.728" x2="78.1336"/>
 </g>
 <g partID="309380">
  <line stroke="black" stroke-linecap="round" y1="125.334" x1="28" y2="125.334" stroke-width="1.728" x2="78.1334"/>
 </g>
 <g partID="303720">
  <line stroke="black" stroke-linecap="round" y1="98.3263" x1="27.7525" y2="125.333" stroke-width="1.728" x2="28.0003"/>
 </g>
 <g partID="304100">
  <line stroke="black" stroke-linecap="round" y1="89.0403" x1="216.866" y2="89.5997" stroke-width="1.728" x2="229.334"/>
 </g>
 <g partID="306640">
  <line stroke="black" stroke-linecap="round" y1="89.6" x1="229.334" y2="46.4002" stroke-width="1.728" x2="229.334"/>
 </g>
 <g partID="305660">
  <line stroke="black" stroke-linecap="round" y1="46.4" x1="229.334" y2="45.938" stroke-width="1.728" x2="216.866"/>
 </g>
 <g partID="308670">
  <line stroke="black" stroke-linecap="round" y1="110.934" x1="215.2" y2="110.934" stroke-width="1.728" x2="186.4"/>
 </g>
 <g partID="308640">
  <line stroke="black" stroke-linecap="round" y1="110.934" x1="186.4" y2="91.0007" stroke-width="1.728" x2="186.157"/>
 </g>
 <g partID="307220">
  <line stroke="black" stroke-linecap="round" y1="115.934" x1="215.008" y2="110.933" stroke-width="1.728" x2="215.2"/>
 </g>
 <g partID="305060">
  <line stroke="black" stroke-linecap="round" y1="38.6664" x1="164.267" y2="12.193" stroke-width="1.728" x2="164.267"/>
 </g>
 <g partID="310190">
  <line stroke="black" stroke-linecap="round" y1="38.9336" x1="157.334" y2="38.6669" stroke-width="1.728" x2="164.267"/>
 </g>
 <g partID="305360">
  <line stroke="black" stroke-linecap="round" y1="39.2" x1="42.1336" y2="38.9333" stroke-width="1.728" x2="157.334"/>
 </g>
 <g partID="298170">
  <line stroke="black" stroke-linecap="round" y1="65.4064" x1="42.1336" y2="39.1998" stroke-width="1.728" x2="42.1336"/>
 </g>
 <g partID="307730">
  <line stroke="black" stroke-linecap="round" y1="60.8" x1="157.334" y2="54.8877" stroke-width="1.728" x2="157.334"/>
 </g>
 <g partID="310140">
  <line stroke="black" stroke-linecap="round" y1="60.8" x1="114.134" y2="60.8" stroke-width="1.728" x2="157.334"/>
 </g>
 <g partID="305710">
  <line stroke="black" stroke-linecap="round" y1="46.4" x1="114.134" y2="60.8" stroke-width="1.728" x2="114.134"/>
 </g>
 <g partID="271060">
  <line stroke="black" stroke-linecap="round" y1="45.938" x1="101.666" y2="46.3997" stroke-width="1.728" x2="114.134"/>
 </g>
 <g partID="300530">
  <line stroke="black" stroke-linecap="round" y1="54.999" x1="186.203" y2="60.5331" stroke-width="1.728" x2="186.4"/>
 </g>
 <g partID="300610">
  <line stroke="black" stroke-linecap="round" y1="60.5336" x1="186.4" y2="60.8003" stroke-width="1.728" x2="171.733"/>
 </g>
 <g partID="306920">
  <line stroke="black" stroke-linecap="round" y1="60.8" x1="171.734" y2="110.667" stroke-width="1.728" x2="172"/>
 </g>
 <g partID="300840">
  <line stroke="black" stroke-linecap="round" y1="110.666" x1="172" y2="125.333" stroke-width="1.728" x2="171.733"/>
 </g>
 <g partID="306990">
  <line stroke="black" stroke-linecap="round" y1="125.334" x1="171.734" y2="125.103" stroke-width="1.728" x2="184.2"/>
 </g>
 <g partID="309150">
  <line stroke="black" stroke-linecap="round" y1="139.734" x1="215.2" y2="139.2" stroke-width="1.728" x2="164.533"/>
 </g>
 <g partID="272050">
  <line stroke="black" stroke-linecap="round" y1="126.887" x1="214.968" y2="139.733" stroke-width="1.728" x2="215.2"/>
 </g>
 <g partID="301700">
  <line stroke="black" stroke-linecap="round" y1="139.2" x1="164.534" y2="125.067" stroke-width="1.728" x2="164.534"/>
 </g>
 <g partID="307910">
  <line stroke="black" stroke-linecap="round" y1="125.066" x1="164.534" y2="67.1998" stroke-width="1.728" x2="164.534"/>
 </g>
 <g partID="272040">
  <line stroke="black" stroke-linecap="round" y1="67.2" x1="164.534" y2="67.7333" stroke-width="1.728" x2="99.7336"/>
 </g>
 <g partID="301830">
  <line stroke="black" stroke-linecap="round" y1="67.7336" x1="99.7336" y2="54.888" stroke-width="1.728" x2="99.7336"/>
 </g>
 <g partID="304240">
  <line stroke="black" stroke-linecap="round" y1="98.3264" x1="34.9336" y2="110.4" stroke-width="1.728" x2="34.9336"/>
 </g>
 <g partID="306030">
  <line stroke="black" stroke-linecap="round" y1="110.4" x1="34.9336" y2="110.933" stroke-width="1.728" x2="63.7336"/>
 </g>
 <g partID="309720">
  <line stroke="black" stroke-linecap="round" y1="110.934" x1="63.7336" y2="45.867" stroke-width="1.728" x2="63.7336"/>
 </g>
 <g partID="309750">
  <line stroke="black" stroke-linecap="round" y1="45.8664" x1="63.7336" y2="45.8664" stroke-width="1.728" x2="97.7997"/>
 </g>
 <g partID="311170">
  <line stroke="black" stroke-linecap="round" y1="104" x1="128.534" y2="104" stroke-width="1.728" x2="99.7336"/>
 </g>
 <g partID="311080">
  <line stroke="black" stroke-linecap="round" y1="104" x1="99.7336" y2="115.933" stroke-width="1.728" x2="99.7339"/>
 </g>
 <g partID="311280">
  <line stroke="black" stroke-linecap="round" y1="104" x1="142.934" y2="104" stroke-width="1.728" x2="128.534"/>
 </g>
 <g partID="310990">
  <line stroke="black" stroke-linecap="round" y1="140" x1="142.934" y2="104" stroke-width="1.728" x2="142.934"/>
 </g>
</svg>
