M48
INCH
T10C0.035000
T11C0.031497
%
T10
X037814Y002702
X036814Y002702
X037814Y003702
X036814Y003702
X037814Y004702
X036814Y004702
X037814Y005702
X036814Y005702
X037814Y006702
X036814Y006702
X037814Y007702
X036814Y007702
X037814Y008702
X036814Y008702
X037814Y009702
X036814Y009702
X037814Y010702
X036814Y010702
X037814Y011702
X036814Y011702
X037814Y012702
X036814Y012702
X037814Y013702
X036814Y013702
X037814Y014702
X036814Y014702
X037814Y015702
X036814Y015702
X037814Y016702
X036814Y016702
X037814Y017702
X036814Y017702
X037814Y018702
X036814Y018702
X037814Y019702
X036814Y019702
X035814Y000702
X034814Y000702
X033814Y000702
X032814Y000702
X031814Y000702
X030814Y000702
X029814Y000702
X028814Y000702
X026814Y000702
X025814Y000702
X033814Y019702
X032814Y019702
X031814Y019702
X030814Y019702
X029814Y019702
X028814Y019702
X027814Y019702
X026814Y019702
X024814Y000702
X023814Y000702
X022814Y000702
X021814Y000702
X020814Y000702
X019814Y000702
X017814Y000702
X016814Y000702
X015814Y000702
X014814Y000702
X013814Y000702
X012814Y000702
X024814Y019702
X023814Y019702
X022814Y019702
X021814Y019702
X020814Y019702
X019814Y019702
X018814Y019702
X017814Y019702
X016114Y019702
X015114Y019702
X014114Y019702
X013114Y019702
X012114Y019702
X011114Y019702
X010114Y019702
X009114Y019702
X001851Y007739
X001851Y011739
X002851Y007739
X002851Y011739
X003851Y007739
X003851Y011739
X004851Y007739
X004851Y011739
X005851Y007739
X005851Y011739
T11
X029851Y014739
X029851Y013755
X033851Y013739
X033851Y014724
X017851Y008739
X017851Y009724
X025851Y008739
X025851Y009724
X013851Y009739
X013851Y008755
X017851Y013739
X017851Y014724
X013851Y014739
X013851Y013755
X021851Y014739
X021851Y013755
X025851Y013739
X025851Y014724
X013851Y004739
X013851Y003755
X021851Y009739
X021851Y008755
X029851Y004739
X029851Y003755
X033851Y003739
X033851Y004724
X025851Y003739
X025851Y004724
X017851Y003739
X017851Y004724
X029851Y009739
X029851Y008755
X033851Y008739
X033851Y009724
X021851Y004739
X021851Y003755
T00
M30
