G04 MADE WITH FRITZING*
G04 WWW.FRITZING.ORG*
G04 DOUBLE SIDED*
G04 HOLES PLATED*
G04 CONTOUR ON CENTER OF CONTOUR VECTOR*
%ASAXBY*%
%FSLAX23Y23*%
%MOIN*%
%OFA0B0*%
%SFA1.0B1.0*%
%ADD10C,0.075000*%
%ADD11C,0.062992*%
%ADD12R,0.075000X0.075000*%
%ADD13R,0.062992X0.062992*%
%ADD14C,0.024000*%
%LNCOPPER1*%
G90*
G70*
G54D10*
X585Y1174D03*
X585Y774D03*
G54D11*
X2185Y376D03*
X2185Y474D03*
X3385Y972D03*
X3385Y874D03*
X2985Y876D03*
X2985Y974D03*
X1785Y472D03*
X1785Y374D03*
X2585Y472D03*
X2585Y374D03*
X3385Y472D03*
X3385Y374D03*
X2985Y376D03*
X2985Y474D03*
X2185Y876D03*
X2185Y974D03*
X1385Y376D03*
X1385Y474D03*
X2585Y1472D03*
X2585Y1374D03*
X2185Y1376D03*
X2185Y1474D03*
X1385Y1376D03*
X1385Y1474D03*
X1785Y1472D03*
X1785Y1374D03*
X1385Y876D03*
X1385Y974D03*
X2585Y972D03*
X2585Y874D03*
X1785Y972D03*
X1785Y874D03*
X3385Y1472D03*
X3385Y1374D03*
X2985Y1376D03*
X2985Y1474D03*
G54D10*
X485Y1174D03*
X485Y774D03*
X385Y1174D03*
X385Y774D03*
X285Y1174D03*
X285Y774D03*
X185Y1174D03*
X185Y774D03*
X911Y1970D03*
X1011Y1970D03*
X1111Y1970D03*
X1211Y1970D03*
X1311Y1970D03*
X1411Y1970D03*
X1511Y1970D03*
X1611Y1970D03*
X1781Y1970D03*
X1881Y1970D03*
X1981Y1970D03*
X2081Y1970D03*
X2181Y1970D03*
X2281Y1970D03*
X2381Y1970D03*
X2481Y1970D03*
X1281Y70D03*
X1381Y70D03*
X1481Y70D03*
X1581Y70D03*
X1681Y70D03*
X1781Y70D03*
X1981Y70D03*
X2081Y70D03*
X2181Y70D03*
X2281Y70D03*
X2381Y70D03*
X2481Y70D03*
X2681Y1970D03*
X2781Y1970D03*
X2881Y1970D03*
X2981Y1970D03*
X3081Y1970D03*
X3181Y1970D03*
X3281Y1970D03*
X3381Y1970D03*
X2581Y70D03*
X2681Y70D03*
X2881Y70D03*
X2981Y70D03*
X3081Y70D03*
X3181Y70D03*
X3281Y70D03*
X3381Y70D03*
X3481Y70D03*
X3581Y70D03*
X3681Y1970D03*
X3781Y1970D03*
X3681Y1870D03*
X3781Y1870D03*
X3681Y1770D03*
X3781Y1770D03*
X3681Y1670D03*
X3781Y1670D03*
X3681Y1570D03*
X3781Y1570D03*
X3681Y1470D03*
X3781Y1470D03*
X3681Y1370D03*
X3781Y1370D03*
X3681Y1270D03*
X3781Y1270D03*
X3681Y1170D03*
X3781Y1170D03*
X3681Y1070D03*
X3781Y1070D03*
X3681Y970D03*
X3781Y970D03*
X3681Y870D03*
X3781Y870D03*
X3681Y770D03*
X3781Y770D03*
X3681Y670D03*
X3781Y670D03*
X3681Y570D03*
X3781Y570D03*
X3681Y470D03*
X3781Y470D03*
X3681Y370D03*
X3781Y370D03*
X3681Y270D03*
X3781Y270D03*
G54D12*
X585Y1174D03*
G54D13*
X2185Y376D03*
X3385Y972D03*
X2985Y876D03*
X1785Y472D03*
X2585Y472D03*
X3385Y472D03*
X2985Y376D03*
X2185Y876D03*
X1385Y376D03*
X2585Y1472D03*
X2185Y1376D03*
X1385Y1376D03*
X1785Y1472D03*
X1385Y876D03*
X2585Y972D03*
X1785Y972D03*
X3385Y1472D03*
X2985Y1376D03*
G54D12*
X485Y1174D03*
X385Y1174D03*
X285Y1174D03*
X185Y1174D03*
G54D14*
X285Y274D02*
X1185Y267D01*
D02*
X285Y745D02*
X285Y274D01*
D02*
X1185Y767D02*
X1585Y767D01*
D02*
X1585Y767D02*
X1585Y967D01*
D02*
X1185Y267D02*
X1185Y767D01*
D02*
X1585Y967D02*
X1412Y973D01*
D02*
X1985Y167D02*
X1989Y970D01*
D02*
X1989Y970D02*
X2158Y973D01*
D02*
X189Y178D02*
X1985Y167D01*
D02*
X185Y670D02*
X189Y178D01*
D02*
X185Y745D02*
X185Y670D01*
D02*
X1085Y874D02*
X1358Y875D01*
D02*
X1085Y370D02*
X1085Y874D01*
D02*
X389Y370D02*
X1085Y370D01*
D02*
X385Y745D02*
X389Y370D01*
D02*
X3012Y874D02*
X3185Y867D01*
D02*
X3185Y867D02*
X3185Y1467D01*
D02*
X3185Y1467D02*
X3012Y1473D01*
D02*
X2989Y570D02*
X2589Y570D01*
D02*
X2589Y570D02*
X2586Y847D01*
D02*
X2986Y501D02*
X2989Y570D01*
D02*
X2281Y1574D02*
X2281Y1942D01*
D02*
X2185Y1570D02*
X2281Y1574D01*
D02*
X585Y1567D02*
X2185Y1570D01*
D02*
X585Y1203D02*
X585Y1567D01*
D02*
X2185Y1267D02*
X2185Y1349D01*
D02*
X1585Y1267D02*
X2185Y1267D01*
D02*
X1585Y1467D02*
X1585Y1267D01*
D02*
X1412Y1473D02*
X1585Y1467D01*
D02*
X2586Y1347D02*
X2589Y1270D01*
D02*
X2589Y1270D02*
X2385Y1267D01*
D02*
X2385Y1267D02*
X2389Y574D01*
D02*
X2389Y574D02*
X2385Y370D01*
D02*
X2385Y370D02*
X2558Y373D01*
D02*
X2989Y170D02*
X2285Y178D01*
D02*
X2986Y349D02*
X2989Y170D01*
D02*
X2285Y178D02*
X2285Y374D01*
D02*
X2285Y374D02*
X2285Y1178D01*
D02*
X2285Y1178D02*
X1385Y1170D01*
D02*
X1385Y1170D02*
X1385Y1349D01*
D02*
X485Y745D02*
X485Y578D01*
D02*
X485Y578D02*
X885Y570D01*
D02*
X885Y570D02*
X885Y1474D01*
D02*
X885Y1474D02*
X1358Y1474D01*
D02*
X1785Y667D02*
X1385Y667D01*
D02*
X1385Y667D02*
X1385Y501D01*
D02*
X1985Y667D02*
X1785Y667D01*
D02*
X1985Y167D02*
X1985Y667D01*
G04 End of Copper1*
M02*